<svg width="33" height="33" viewBox="0 0 33 33" fill="none" xmlns="http://www.w3.org/2000/svg">
<mask id="mask0_63_73" style="mask-type:alpha" maskUnits="userSpaceOnUse" x="0" y="0" width="33" height="33">
<rect width="33" height="33" fill="#D9D9D9"/>
</mask>
<g mask="url(#mask0_63_73)">
<path d="M6.875 28.875C6.11875 28.875 5.47135 28.6057 4.93281 28.0672C4.39427 27.5286 4.125 26.8813 4.125 26.125V6.875C4.125 6.11875 4.39427 5.47135 4.93281 4.93281C5.47135 4.39427 6.11875 4.125 6.875 4.125H19.25V6.875H6.875V26.125H26.125V13.75H28.875V26.125C28.875 26.8813 28.6057 27.5286 28.0672 28.0672C27.5286 28.6057 26.8813 28.875 26.125 28.875H6.875ZM9.625 23.375H12.375V13.75H9.625V23.375ZM15.125 23.375H17.875V9.625H15.125V23.375ZM20.625 23.375H23.375V17.875H20.625V23.375ZM23.375 12.375V9.625H20.625V6.875H23.375V4.125H26.125V6.875H28.875V9.625H26.125V12.375H23.375Z" fill="#C25E5E"/>
</g>
</svg>
