<svg width="45" height="46" viewBox="0 0 45 46" fill="none" xmlns="http://www.w3.org/2000/svg">
<path d="M22.5 0C10.0706 0 0 10.2944 0 23C0 35.7056 10.0706 46 22.5 46C34.9294 46 45 35.7056 45 23C45 10.2944 34.9294 0 22.5 0ZM33.5323 29.0375C33.9587 29.4734 33.9587 30.1782 33.5323 30.6141L29.9395 34.2774C29.5131 34.7133 28.8236 34.7133 28.3972 34.2774L22.5 28.1935L16.5938 34.2774C16.1673 34.7133 15.4778 34.7133 15.0514 34.2774L11.4677 30.6048C11.0413 30.169 11.0413 29.4641 11.4677 29.0282L17.4194 23L11.4677 16.9625C11.0413 16.5266 11.0413 15.8218 11.4677 15.3859L15.0605 11.7133C15.4869 11.2774 16.1764 11.2774 16.6028 11.7133L22.5 17.8065L28.4063 11.7226C28.8327 11.2867 29.5222 11.2867 29.9486 11.7226L33.5413 15.3952C33.9677 15.831 33.9677 16.5359 33.5413 16.9718L27.5806 23L33.5323 29.0375Z" fill="#F32222"/>
</svg>
