<svg width="33" height="33" viewBox="0 0 33 33" fill="none" xmlns="http://www.w3.org/2000/svg">
<mask id="mask0_63_103" style="mask-type:alpha" maskUnits="userSpaceOnUse" x="0" y="0" width="33" height="33">
<rect width="33" height="33" fill="#D9D9D9"/>
</mask>
<g mask="url(#mask0_63_103)">
<path d="M6.875 28.875C6.11875 28.875 5.47135 28.6057 4.93281 28.0672C4.39427 27.5286 4.125 26.8812 4.125 26.125V6.875C4.125 6.11875 4.39427 5.47135 4.93281 4.93281C5.47135 4.39427 6.11875 4.125 6.875 4.125H12.65C12.9479 3.3 13.4464 2.63542 14.1453 2.13125C14.8443 1.62708 15.6292 1.375 16.5 1.375C17.3708 1.375 18.1557 1.62708 18.8547 2.13125C19.5536 2.63542 20.0521 3.3 20.35 4.125H26.125C26.8813 4.125 27.5286 4.39427 28.0672 4.93281C28.6057 5.47135 28.875 6.11875 28.875 6.875V16.0875C28.4396 15.8812 27.9927 15.7036 27.5344 15.5547C27.076 15.4057 26.6062 15.2969 26.125 15.2281V6.875H6.875V26.125H15.1938C15.2625 26.6292 15.3714 27.1104 15.5203 27.5688C15.6693 28.0271 15.8469 28.4625 16.0531 28.875H6.875ZM6.875 26.125V6.875V15.2281V15.125V26.125ZM9.625 23.375H15.2281C15.2969 22.8937 15.4057 22.424 15.5547 21.9656C15.7036 21.5073 15.8698 21.0604 16.0531 20.625H9.625V23.375ZM9.625 17.875H18.0125C18.7458 17.1875 19.5651 16.6146 20.4703 16.1562C21.3755 15.6979 22.3438 15.3885 23.375 15.2281V15.125H9.625V17.875ZM9.625 12.375H23.375V9.625H9.625V12.375ZM16.5 5.84375C16.7979 5.84375 17.0443 5.74635 17.2391 5.55156C17.4339 5.35677 17.5312 5.11042 17.5312 4.8125C17.5312 4.51458 17.4339 4.26823 17.2391 4.07344C17.0443 3.87865 16.7979 3.78125 16.5 3.78125C16.2021 3.78125 15.9557 3.87865 15.7609 4.07344C15.5661 4.26823 15.4688 4.51458 15.4688 4.8125C15.4688 5.11042 15.5661 5.35677 15.7609 5.55156C15.9557 5.74635 16.2021 5.84375 16.5 5.84375ZM24.75 31.625C22.8479 31.625 21.2266 30.9547 19.8859 29.6141C18.5453 28.2734 17.875 26.6521 17.875 24.75C17.875 22.8479 18.5453 21.2266 19.8859 19.8859C21.2266 18.5453 22.8479 17.875 24.75 17.875C26.6521 17.875 28.2734 18.5453 29.6141 19.8859C30.9547 21.2266 31.625 22.8479 31.625 24.75C31.625 26.6521 30.9547 28.2734 29.6141 29.6141C28.2734 30.9547 26.6521 31.625 24.75 31.625ZM24.0625 28.875H25.4375V25.4375H28.875V24.0625H25.4375V20.625H24.0625V24.0625H20.625V25.4375H24.0625V28.875Z" fill="#4D0606"/>
</g>
</svg>
