<svg width="58" height="55" viewBox="0 0 58 55" fill="none" xmlns="http://www.w3.org/2000/svg">
<mask id="mask0_142_92" style="mask-type:alpha" maskUnits="userSpaceOnUse" x="0" y="0" width="58" height="55">
<rect width="58" height="55" fill="#D9D9D9"/>
</mask>
<g mask="url(#mask0_142_92)">
<path d="M29 48.125C23.4417 48.125 18.5983 46.3776 14.4698 42.8828C10.3413 39.388 7.975 35.0243 7.37083 29.7917H12.325C12.8889 33.7639 14.7517 37.0486 17.9135 39.6458C21.0753 42.2431 24.7708 43.5417 29 43.5417C33.7125 43.5417 37.7101 41.9852 40.9927 38.8724C44.2753 35.7596 45.9167 31.9688 45.9167 27.5C45.9167 23.0313 44.2753 19.2405 40.9927 16.1276C37.7101 13.0148 33.7125 11.4583 29 11.4583C26.2208 11.4583 23.6229 12.0694 21.2062 13.2917C18.7896 14.5139 16.7556 16.1944 15.1042 18.3333H21.75V22.9167H7.25V9.16667H12.0833V14.5521C14.1375 12.1076 16.6448 10.217 19.6052 8.88021C22.5656 7.5434 25.6972 6.875 29 6.875C32.0208 6.875 34.8503 7.41927 37.4885 8.50781C40.1267 9.59635 42.4226 11.0668 44.376 12.9193C46.3295 14.7717 47.8802 16.9488 49.0281 19.4505C50.176 21.9523 50.75 24.6354 50.75 27.5C50.75 30.3646 50.176 33.0477 49.0281 35.5495C47.8802 38.0512 46.3295 40.2283 44.376 42.0807C42.4226 43.9332 40.1267 45.4037 37.4885 46.4922C34.8503 47.5807 32.0208 48.125 29 48.125ZM35.7667 37.125L26.5833 28.4167V16.0417H31.4167V26.5833L39.15 33.9167L35.7667 37.125Z" fill="#D6B540"/>
</g>
</svg>
