<svg width="33" height="33" viewBox="0 0 33 33" fill="none" xmlns="http://www.w3.org/2000/svg">
<mask id="mask0_63_121" style="mask-type:alpha" maskUnits="userSpaceOnUse" x="0" y="0" width="33" height="33">
<rect width="33" height="33" fill="#D9D9D9"/>
</mask>
<g mask="url(#mask0_63_121)">
<path d="M6.875 30.25C6.11875 30.25 5.47135 29.9807 4.93281 29.4422C4.39427 28.9036 4.125 28.2563 4.125 27.5V8.25C4.125 7.49375 4.39427 6.84635 4.93281 6.30781C5.47135 5.76927 6.11875 5.5 6.875 5.5H8.25V2.75H11V5.5H22V2.75H24.75V5.5H26.125C26.8813 5.5 27.5286 5.76927 28.0672 6.30781C28.6057 6.84635 28.875 7.49375 28.875 8.25V27.5C28.875 28.2563 28.6057 28.9036 28.0672 29.4422C27.5286 29.9807 26.8813 30.25 26.125 30.25H6.875ZM6.875 27.5H26.125V13.75H6.875V27.5ZM6.875 11H26.125V8.25H6.875V11ZM16.5 19.25C16.1104 19.25 15.7839 19.1182 15.5203 18.8547C15.2568 18.5911 15.125 18.2646 15.125 17.875C15.125 17.4854 15.2568 17.1589 15.5203 16.8953C15.7839 16.6318 16.1104 16.5 16.5 16.5C16.8896 16.5 17.2161 16.6318 17.4797 16.8953C17.7432 17.1589 17.875 17.4854 17.875 17.875C17.875 18.2646 17.7432 18.5911 17.4797 18.8547C17.2161 19.1182 16.8896 19.25 16.5 19.25ZM11 19.25C10.6104 19.25 10.2839 19.1182 10.0203 18.8547C9.75677 18.5911 9.625 18.2646 9.625 17.875C9.625 17.4854 9.75677 17.1589 10.0203 16.8953C10.2839 16.6318 10.6104 16.5 11 16.5C11.3896 16.5 11.7161 16.6318 11.9797 16.8953C12.2432 17.1589 12.375 17.4854 12.375 17.875C12.375 18.2646 12.2432 18.5911 11.9797 18.8547C11.7161 19.1182 11.3896 19.25 11 19.25ZM22 19.25C21.6104 19.25 21.2839 19.1182 21.0203 18.8547C20.7568 18.5911 20.625 18.2646 20.625 17.875C20.625 17.4854 20.7568 17.1589 21.0203 16.8953C21.2839 16.6318 21.6104 16.5 22 16.5C22.3896 16.5 22.7161 16.6318 22.9797 16.8953C23.2432 17.1589 23.375 17.4854 23.375 17.875C23.375 18.2646 23.2432 18.5911 22.9797 18.8547C22.7161 19.1182 22.3896 19.25 22 19.25ZM16.5 24.75C16.1104 24.75 15.7839 24.6182 15.5203 24.3547C15.2568 24.0911 15.125 23.7646 15.125 23.375C15.125 22.9854 15.2568 22.6589 15.5203 22.3953C15.7839 22.1318 16.1104 22 16.5 22C16.8896 22 17.2161 22.1318 17.4797 22.3953C17.7432 22.6589 17.875 22.9854 17.875 23.375C17.875 23.7646 17.7432 24.0911 17.4797 24.3547C17.2161 24.6182 16.8896 24.75 16.5 24.75ZM11 24.75C10.6104 24.75 10.2839 24.6182 10.0203 24.3547C9.75677 24.0911 9.625 23.7646 9.625 23.375C9.625 22.9854 9.75677 22.6589 10.0203 22.3953C10.2839 22.1318 10.6104 22 11 22C11.3896 22 11.7161 22.1318 11.9797 22.3953C12.2432 22.6589 12.375 22.9854 12.375 23.375C12.375 23.7646 12.2432 24.0911 11.9797 24.3547C11.7161 24.6182 11.3896 24.75 11 24.75ZM22 24.75C21.6104 24.75 21.2839 24.6182 21.0203 24.3547C20.7568 24.0911 20.625 23.7646 20.625 23.375C20.625 22.9854 20.7568 22.6589 21.0203 22.3953C21.2839 22.1318 21.6104 22 22 22C22.3896 22 22.7161 22.1318 22.9797 22.3953C23.2432 22.6589 23.375 22.9854 23.375 23.375C23.375 23.7646 23.2432 24.0911 22.9797 24.3547C22.7161 24.6182 22.3896 24.75 22 24.75Z" fill="#E2DA18"/>
</g>
</svg>
