<svg width="33" height="33" viewBox="0 0 33 33" fill="none" xmlns="http://www.w3.org/2000/svg">
<mask id="mask0_63_85" style="mask-type:alpha" maskUnits="userSpaceOnUse" x="0" y="0" width="33" height="33">
<rect width="33" height="33" fill="#D9D9D9"/>
</mask>
<g mask="url(#mask0_63_85)">
<path d="M6.875 28.875C6.11875 28.875 5.47135 28.6057 4.93281 28.0672C4.39427 27.5286 4.125 26.8813 4.125 26.125V6.875C4.125 6.11875 4.39427 5.47135 4.93281 4.93281C5.47135 4.39427 6.11875 4.125 6.875 4.125H12.6156C12.8677 3.32292 13.3604 2.66406 14.0938 2.14844C14.8271 1.63281 15.6292 1.375 16.5 1.375C17.4167 1.375 18.2359 1.63281 18.9578 2.14844C19.6797 2.66406 20.1667 3.32292 20.4188 4.125H26.125C26.8813 4.125 27.5286 4.39427 28.0672 4.93281C28.6057 5.47135 28.875 6.11875 28.875 6.875V26.125C28.875 26.8813 28.6057 27.5286 28.0672 28.0672C27.5286 28.6057 26.8813 28.875 26.125 28.875H6.875ZM6.875 26.125H26.125V6.875H23.375V11H9.625V6.875H6.875V26.125ZM16.5 6.875C16.8896 6.875 17.2161 6.74323 17.4797 6.47969C17.7432 6.21615 17.875 5.88958 17.875 5.5C17.875 5.11042 17.7432 4.78385 17.4797 4.52031C17.2161 4.25677 16.8896 4.125 16.5 4.125C16.1104 4.125 15.7839 4.25677 15.5203 4.52031C15.2568 4.78385 15.125 5.11042 15.125 5.5C15.125 5.88958 15.2568 6.21615 15.5203 6.47969C15.7839 6.74323 16.1104 6.875 16.5 6.875Z" fill="#0C318F"/>
</g>
</svg>
