<svg width="33" height="33" viewBox="0 0 33 33" fill="none" xmlns="http://www.w3.org/2000/svg">
<mask id="mask0_62_67" style="mask-type:alpha" maskUnits="userSpaceOnUse" x="0" y="0" width="33" height="33">
<rect width="32.175" height="33" fill="#D9D9D9"/>
</mask>
<g mask="url(#mask0_62_67)">
<path d="M16.0876 28.875C12.7137 28.875 9.85928 28.3422 7.52436 27.2766C5.18943 26.2109 4.02197 24.9104 4.02197 23.375V9.62501C4.02197 8.11251 5.20061 6.81772 7.55787 5.74063C9.91514 4.66355 12.7584 4.12501 16.0876 4.12501C19.4168 4.12501 22.2601 4.66355 24.6173 5.74063C26.9746 6.81772 28.1532 8.11251 28.1532 9.62501V23.375C28.1532 24.9104 26.9858 26.2109 24.6508 27.2766C22.3159 28.3422 19.4615 28.875 16.0876 28.875ZM16.0876 12.4094C18.0762 12.4094 20.076 12.1172 22.0869 11.5328C24.0978 10.9484 25.2262 10.324 25.472 9.65938C25.2262 8.9948 24.1034 8.36459 22.1037 7.76876C20.1039 7.17292 18.0985 6.87501 16.0876 6.87501C14.0543 6.87501 12.0601 7.1672 10.1051 7.75157C8.14998 8.33595 7.01603 8.97188 6.70322 9.65938C7.01603 10.3469 8.14998 10.9771 10.1051 11.55C12.0601 12.1229 14.0543 12.4094 16.0876 12.4094ZM16.0876 19.25C17.026 19.25 17.931 19.2042 18.8024 19.1125C19.6738 19.0208 20.5061 18.8891 21.2993 18.7172C22.0925 18.5453 22.841 18.3333 23.5448 18.0813C24.2487 17.8292 24.891 17.5427 25.472 17.2219V13.0969C24.891 13.4177 24.2487 13.7042 23.5448 13.9563C22.841 14.2083 22.0925 14.4203 21.2993 14.5922C20.5061 14.7641 19.6738 14.8958 18.8024 14.9875C17.931 15.0792 17.026 15.125 16.0876 15.125C15.1492 15.125 14.2331 15.0792 13.3393 14.9875C12.4456 14.8958 11.6021 14.7641 10.8089 14.5922C10.0157 14.4203 9.27275 14.2083 8.5801 13.9563C7.88744 13.7042 7.26182 13.4177 6.70322 13.0969V17.2219C7.26182 17.5427 7.88744 17.8292 8.5801 18.0813C9.27275 18.3333 10.0157 18.5453 10.8089 18.7172C11.6021 18.8891 12.4456 19.0208 13.3393 19.1125C14.2331 19.2042 15.1492 19.25 16.0876 19.25ZM16.0876 26.125C17.1154 26.125 18.16 26.0448 19.2213 25.8844C20.2826 25.724 21.2602 25.512 22.1539 25.2484C23.0477 24.9849 23.7962 24.687 24.3995 24.3547C25.0028 24.0224 25.3603 23.6844 25.472 23.3406V19.9719C24.891 20.2927 24.2487 20.5792 23.5448 20.8313C22.841 21.0833 22.0925 21.2953 21.2993 21.4672C20.5061 21.6391 19.6738 21.7708 18.8024 21.8625C17.931 21.9542 17.026 22 16.0876 22C15.1492 22 14.2331 21.9542 13.3393 21.8625C12.4456 21.7708 11.6021 21.6391 10.8089 21.4672C10.0157 21.2953 9.27275 21.0833 8.5801 20.8313C7.88744 20.5792 7.26182 20.2927 6.70322 19.9719V23.375C6.81494 23.7188 7.16686 24.051 7.75896 24.3719C8.35107 24.6927 9.094 24.9849 9.98775 25.2484C10.8815 25.512 11.8646 25.724 12.9371 25.8844C14.0096 26.0448 15.0598 26.125 16.0876 26.125Z" fill="#313EB5"/>
</g>
</svg>
