<svg width="33" height="33" viewBox="0 0 33 33" fill="none" xmlns="http://www.w3.org/2000/svg">
<mask id="mask0_63_79" style="mask-type:alpha" maskUnits="userSpaceOnUse" x="0" y="0" width="33" height="33">
<rect width="33" height="33" fill="#D9D9D9"/>
</mask>
<g mask="url(#mask0_63_79)">
<path d="M16.5 28.875C13.3375 28.875 10.5818 27.8266 8.23281 25.7297C5.88385 23.6328 4.5375 21.0146 4.19375 17.875H7.0125C7.33333 20.2583 8.39323 22.2292 10.1922 23.7875C11.9911 25.3458 14.0938 26.125 16.5 26.125C19.1813 26.125 21.4557 25.1911 23.3234 23.3234C25.1911 21.4557 26.125 19.1813 26.125 16.5C26.125 13.8187 25.1911 11.5443 23.3234 9.67656C21.4557 7.80885 19.1813 6.875 16.5 6.875C14.9188 6.875 13.4406 7.24167 12.0656 7.975C10.6906 8.70833 9.53333 9.71667 8.59375 11H12.375V13.75H4.125V5.5H6.875V8.73125C8.04375 7.26458 9.47031 6.13021 11.1547 5.32812C12.8391 4.52604 14.6208 4.125 16.5 4.125C18.2188 4.125 19.8286 4.45156 21.3297 5.10469C22.8307 5.75781 24.137 6.6401 25.2484 7.75156C26.3599 8.86302 27.2422 10.1693 27.8953 11.6703C28.5484 13.1714 28.875 14.7812 28.875 16.5C28.875 18.2188 28.5484 19.8286 27.8953 21.3297C27.2422 22.8307 26.3599 24.137 25.2484 25.2484C24.137 26.3599 22.8307 27.2422 21.3297 27.8953C19.8286 28.5484 18.2188 28.875 16.5 28.875ZM20.35 22.275L15.125 17.05V9.625H17.875V15.95L22.275 20.35L20.35 22.275Z" fill="#719D14"/>
</g>
</svg>
