<svg width="55" height="43" viewBox="0 0 55 43" fill="none" xmlns="http://www.w3.org/2000/svg">
<path d="M36 22.4286V3.85714H18.1257C20.0929 5.17572 21.3557 7.08852 21.4286 9.26138C21.4771 10.6542 20.9915 11.9914 20.1172 13.1243C19.6315 13.7928 19 14.4057 18.2471 14.8886C16.5957 16.0957 14.3858 16.82 11.9329 16.8571C8.9215 16.9129 6.20143 15.91 4.42857 14.2943V26.1429M36 22.4286C36 24.4714 33.8143 26.1429 31.1429 26.1429H4.42857M36 22.4286V9.42857H40.4686C42.2171 9.42857 43.82 10.1529 44.6943 11.3043L48.8471 16.8571M4.42857 26.1429V31.7143C4.42857 34.7972 7.68286 37.2857 11.7143 37.2857H14.1429M53 26.1429V31.7143C53 34.7972 49.7457 37.2857 45.7143 37.2857H43.2857M53 26.1429H45.7143C44.3786 26.1429 43.2857 25.3072 43.2857 24.2857V18.7143C43.2857 17.6929 44.3786 16.8571 45.7143 16.8571H48.8471M53 26.1429V22.4286L48.8471 16.8571M43.2857 37.2857C43.2857 35.2429 41.1 33.5714 38.4286 33.5714M43.2857 37.2857C43.2857 39.3371 41.1112 41 38.4286 41C35.746 41 33.5714 39.3371 33.5714 37.2857M43.2857 37.2857C43.2857 35.2343 41.1112 33.5714 38.4286 33.5714M38.4286 33.5714C35.7571 33.5714 33.5714 35.2429 33.5714 37.2857M38.4286 33.5714C35.746 33.5714 33.5714 35.2343 33.5714 37.2857M33.5714 37.2857H23.8571M23.8571 37.2857C23.8571 35.2429 21.6714 33.5714 19 33.5714M23.8571 37.2857C23.8571 39.3371 21.6825 41 19 41C16.3175 41 14.1429 39.3371 14.1429 37.2857M23.8571 37.2857C23.8571 35.2343 21.6825 33.5714 19 33.5714M19 33.5714C16.3286 33.5714 14.1429 35.2429 14.1429 37.2857M19 33.5714C16.3175 33.5714 14.1429 35.2343 14.1429 37.2857M12.3214 7.10714V9.89286L9.28571 11.2857M21.4286 9.42857C21.4286 11.6571 20.1415 13.6443 18.1257 15C16.4015 16.1514 14.1671 16.8571 11.7143 16.8571C6.34714 16.8571 2 13.5329 2 9.42857C2 7.08857 3.40857 4.99 5.64286 3.63429C7.31857 2.61286 9.43143 2 11.7143 2C17.0814 2 21.4286 5.32429 21.4286 9.42857Z" stroke="#6B8FBD" stroke-width="4" stroke-miterlimit="10" stroke-linecap="round" stroke-linejoin="round"/>
</svg>
