<svg width="39" height="39" viewBox="0 0 39 39" fill="none" xmlns="http://www.w3.org/2000/svg">
<mask id="mask0_130_125" style="mask-type:alpha" maskUnits="userSpaceOnUse" x="0" y="0" width="39" height="39">
<rect width="38.54" height="38.54" fill="#D9D9D9"/>
</mask>
<g mask="url(#mask0_130_125)">
<path d="M32.3574 20.8758H12.8465V17.6642H32.3574L29.8684 15.1751L32.1165 12.8467L38.5399 19.27L32.1165 25.6933L29.8684 23.3649L32.3574 20.8758ZM24.0874 14.4525V8.02917H8.02905V30.5108H24.0874V24.0875H27.299V30.5108C27.299 31.394 26.9846 32.1501 26.3556 32.7791C25.7267 33.408 24.9706 33.7225 24.0874 33.7225H8.02905C7.14584 33.7225 6.38976 33.408 5.76081 32.7791C5.13186 32.1501 4.81738 31.394 4.81738 30.5108V8.02917C4.81738 7.14596 5.13186 6.38988 5.76081 5.76093C6.38976 5.13198 7.14584 4.8175 8.02905 4.8175H24.0874C24.9706 4.8175 25.7267 5.13198 26.3556 5.76093C26.9846 6.38988 27.299 7.14596 27.299 8.02917V14.4525H24.0874Z" fill="#1C1B1F"/>
</g>
</svg>
