<svg width="52" height="52" viewBox="0 0 52 52" fill="none" xmlns="http://www.w3.org/2000/svg">
<path d="M44.7776 5.77778C44.7776 4.98004 44.1309 4.33334 43.3331 4.33334C42.5353 4.33334 41.8887 4.98004 41.8887 5.77778V9.10405L43.5756 11.6346C44.0182 12.2983 44.9151 12.4777 45.5788 12.0353C46.2425 11.5927 46.4219 10.6958 45.9795 10.0321L44.7776 8.22929V5.77778Z" fill="#E55656"/>
<path fill-rule="evenodd" clip-rule="evenodd" d="M43.3332 17.3333C48.1196 17.3333 51.9998 13.4531 51.9998 8.66667C51.9998 3.8802 48.1196 0 43.3332 0C38.5467 0 34.6665 3.8802 34.6665 8.66667C34.6665 13.4531 38.5467 17.3333 43.3332 17.3333ZM43.3332 14.4444C46.5241 14.4444 49.1109 11.8576 49.1109 8.66667C49.1109 5.47569 46.5241 2.88889 43.3332 2.88889C40.1422 2.88889 37.5554 5.47569 37.5554 8.66667C37.5554 11.8576 40.1422 14.4444 43.3332 14.4444Z" fill="#E55656"/>
<path fill-rule="evenodd" clip-rule="evenodd" d="M17.4721 13.152C15.3458 11.0244 11.897 11.0233 9.76907 13.1494L8.75203 14.1655C6.81763 13.6158 4.65335 14.1077 3.13015 15.6412C0.882542 17.904 0.882542 21.5765 3.13015 23.8394L4.33333 25.0507V40.4444H0V43.3333H4.40629C3.46989 44.251 2.88889 45.5299 2.88889 46.9444C2.88889 49.7366 5.15233 52 7.94444 52C10.7366 52 13 49.7366 13 46.9444C13 45.5299 12.419 44.251 11.4826 43.3333H40.5174C39.581 44.251 39 45.5299 39 46.9444C39 49.7366 41.2634 52 44.0556 52C46.8477 52 49.1111 49.7366 49.1111 46.9444C49.1111 45.5299 48.5302 44.251 47.5937 43.3333H52V40.4444H46.2222V36.1107H46.3178C49.456 36.1107 52 33.5455 52 30.381C52 27.2167 49.456 24.6515 46.3178 24.6515H20.3811C20.2634 24.6515 20.1503 24.6042 20.0669 24.5203L19.5377 23.9876L20.0698 23.4559C22.1979 21.3297 22.1991 17.8812 20.0724 15.7535L17.4721 13.152ZM43.3333 40.4444V36.1107H15.9932C15.5614 36.1107 15.1475 35.9379 14.842 35.6304L7.22222 27.9591V40.4444H43.3333ZM17.5019 21.9379L18.028 21.4123C19.0272 20.4139 19.0278 18.7948 18.0293 17.7958L15.429 15.1943C14.4303 14.195 12.8103 14.1944 11.8109 15.193L11.3047 15.6988L17.5019 21.9379ZM46.3178 27.5404H20.3811C19.4902 27.5404 18.6406 27.1836 18.0174 26.5563L9.19779 17.6771C8.08499 16.5567 6.29258 16.5567 5.17978 17.6771C4.05119 18.8133 4.05119 20.6673 5.17978 21.8036L16.5214 33.2218H46.3178C47.838 33.2218 49.1111 31.9726 49.1111 30.381C49.1111 28.7894 47.8378 27.5404 46.3178 27.5404ZM10.1111 46.9444C10.1111 48.141 9.14102 49.1111 7.94444 49.1111C6.74787 49.1111 5.77778 48.141 5.77778 46.9444C5.77778 45.7479 6.74787 44.7778 7.94444 44.7778C9.14102 44.7778 10.1111 45.7479 10.1111 46.9444ZM44.0556 49.1111C45.2521 49.1111 46.2222 48.141 46.2222 46.9444C46.2222 45.7479 45.2521 44.7778 44.0556 44.7778C42.859 44.7778 41.8889 45.7479 41.8889 46.9444C41.8889 48.141 42.859 49.1111 44.0556 49.1111Z" fill="#E55656"/>
</svg>
