<svg width="52" height="53" viewBox="0 0 52 53" fill="none" xmlns="http://www.w3.org/2000/svg">
<path d="M9.5791 1.325C9.5791 0.593229 10.1917 0 10.9475 0C11.7033 0 12.3159 0.593229 12.3159 1.325V9.275C12.3159 10.0068 11.7033 10.6 10.9475 10.6C10.1917 10.6 9.5791 10.0068 9.5791 9.275V1.325Z" fill="#A81A1A"/>
<path d="M31.4741 1.325C31.4741 0.593229 32.0868 0 32.8425 0C33.5983 0 34.211 0.593229 34.211 1.325V9.275C34.211 10.0068 33.5983 10.6 32.8425 10.6C32.0868 10.6 31.4741 10.0068 31.4741 9.275V1.325Z" fill="#A81A1A"/>
<path fill-rule="evenodd" clip-rule="evenodd" d="M12.316 25.175H9.57913V27.825H12.316V25.175ZM9.57913 22.525C8.06757 22.525 6.84229 23.7114 6.84229 25.175V27.825C6.84229 29.2886 8.06757 30.475 9.57913 30.475H12.316C13.8275 30.475 15.0528 29.2886 15.0528 27.825V25.175C15.0528 23.7114 13.8275 22.525 12.316 22.525H9.57913Z" fill="#A81A1A"/>
<path fill-rule="evenodd" clip-rule="evenodd" d="M23.2632 25.175H20.5264V27.825H23.2632V25.175ZM20.5264 22.525C19.0148 22.525 17.7896 23.7114 17.7896 25.175V27.825C17.7896 29.2886 19.0148 30.475 20.5264 30.475H23.2632C24.7748 30.475 26.0001 29.2886 26.0001 27.825V25.175C26.0001 23.7114 24.7748 22.525 23.2632 22.525H20.5264Z" fill="#A81A1A"/>
<path fill-rule="evenodd" clip-rule="evenodd" d="M34.2105 25.175H31.4737V27.825H34.2105V25.175ZM31.4737 22.525C29.9621 22.525 28.7368 23.7114 28.7368 25.175V27.825C28.7368 29.2886 29.9621 30.475 31.4737 30.475H34.2105C35.7221 30.475 36.9473 29.2886 36.9473 27.825V25.175C36.9473 23.7114 35.7221 22.525 34.2105 22.525H31.4737Z" fill="#A81A1A"/>
<path fill-rule="evenodd" clip-rule="evenodd" d="M12.316 35.775H9.57913V38.425H12.316V35.775ZM9.57913 33.125C8.06757 33.125 6.84229 34.3114 6.84229 35.775V38.425C6.84229 39.8886 8.06757 41.075 9.57913 41.075H12.316C13.8275 41.075 15.0528 39.8886 15.0528 38.425V35.775C15.0528 34.3114 13.8275 33.125 12.316 33.125H9.57913Z" fill="#A81A1A"/>
<path fill-rule="evenodd" clip-rule="evenodd" d="M23.2632 35.775H20.5264V38.425H23.2632V35.775ZM20.5264 33.125C19.0148 33.125 17.7896 34.3114 17.7896 35.775V38.425C17.7896 39.8886 19.0148 41.075 20.5264 41.075H23.2632C24.7748 41.075 26.0001 39.8886 26.0001 38.425V35.775C26.0001 34.3114 24.7748 33.125 23.2632 33.125H20.5264Z" fill="#A81A1A"/>
<path fill-rule="evenodd" clip-rule="evenodd" d="M5.47368 7.95H38.3158C39.8273 7.95 41.0526 9.13641 41.0526 10.6V31.8C41.9977 31.8 42.9148 31.9159 43.7895 32.1339V10.6C43.7895 7.67289 41.3388 5.3 38.3158 5.3H5.47368C2.45065 5.3 0 7.67289 0 10.6V42.4C0 45.3271 2.45065 47.7 5.47368 47.7H31.5699C31.0799 46.8798 30.7001 45.9901 30.4501 45.05H5.47368C3.96217 45.05 2.73684 43.8636 2.73684 42.4V10.6C2.73684 9.13641 3.96217 7.95 5.47368 7.95Z" fill="#A81A1A"/>
<path fill-rule="evenodd" clip-rule="evenodd" d="M42.4208 19.875H1.36816V17.225H42.4208V19.875Z" fill="#A81A1A"/>
<path fill-rule="evenodd" clip-rule="evenodd" d="M41.0523 50.35C45.5869 50.35 49.2629 46.7907 49.2629 42.4C49.2629 38.0094 45.5869 34.45 41.0523 34.45C36.5178 34.45 32.8418 38.0094 32.8418 42.4C32.8418 46.7907 36.5178 50.35 41.0523 50.35ZM41.0523 53C47.0984 53 51.9997 48.2543 51.9997 42.4C51.9997 36.5458 47.0984 31.8 41.0523 31.8C35.0063 31.8 30.105 36.5458 30.105 42.4C30.105 48.2543 35.0063 53 41.0523 53Z" fill="#A81A1A"/>
<path fill-rule="evenodd" clip-rule="evenodd" d="M41.053 36.0118C41.8088 36.0118 42.4214 36.605 42.4214 37.3368V43.0318L45.7761 45.2865C46.3969 45.7038 46.5509 46.5294 46.1198 47.1305C45.6889 47.7317 44.8363 47.8807 44.2154 47.4635L39.6846 44.4182V37.3368C39.6846 36.605 40.2972 36.0118 41.053 36.0118Z" fill="#A81A1A"/>
</svg>
